DataType=double
version=3
OpenSimVersion=4.5-2023-11-26-efcdfd3eb
endheader
time	EMG01_right_gast_med	EMG02_right_glut_max	EMG03_left_gast_med	EMG04_left_glut_max	EMG05_right_glut_med	EMG06_right_bic_fem	EMG07_right_rect_fem	EMG08_right_vast_lat	EMG09_right_vast_med	EMG10_right_tens_fasc_lat	EMG11_left_glut_med	EMG12_left_bic_fem	EMG13_left_rect_fem	EMG14_left_vast_lat	EMG15_left_vast_med	EMG16_left_tens_fasc_lat
0	0.007375162243986898	-0.01378225191899571	0.005686956623247176	0.002928550796001357	-0.003785619270281696	0.002352801892945581	0.006951077518216329	-0.001493645667173309	-0.001761074351582835	0.01444967656602612	0.01538724966360527	0.004878604854828631	0.005562895896170584	0.002897673488899844	-0.007976517698883938	-0.00763910727313545
0.01	0.03572562904057339	-0.01216579575827896	0.008670297904819343	0.009136190846209978	0.002404976612632647	0.007111222311592121	0.02427615985452568	-0.0002808597461087031	-0.0007351927098503319	0.02411282411579494	0.03088910336546652	0.01202777656273988	0.01604575304310284	0.01461826038051204	-0.002442296848121144	0.00285425959756243
0.02	0.06316332316645955	-0.01026172364709936	0.01176939768705344	0.01524468948476422	0.009082887785086733	0.01183975840347029	0.04062116010125769	0.0009538115858882832	0.0003425649289736259	0.03401994492938187	0.04621217514904117	0.01897560117803358	0.02662935437940483	0.02614460531121077	0.003210813828876791	0.01331618802265936
0.03	0.08941511982546993	-0.008058985918775735	0.01495950059417318	0.02123106335163449	0.01622499527365407	0.01647922338386501	0.05592550127843031	0.002203227593831874	0.001469446657948493	0.04412588777197177	0.06126236096402822	0.02567999529827747	0.03722073315952511	0.0374262273469332	0.008972467331726224	0.02373045364034042
0.04	0.1142238095917522	-0.005547994940270009	0.01821432474446413	0.02707277860734716	0.02380210589524911	0.02097212692422888	0.07013734909948185	0.003460335233986363	0.00264219655439715	0.05438088022568704	0.07594622684165782	0.03210077141598325	0.04772646345790455	0.04841355471549141	0.0148311759871966	0.03408311297637322
0.05	0.1373528717970639	-0.002720848273188516	0.02150642481652278	0.03274786324194495	0.03177894199826543	0.02526378918466891	0.08321381924022915	0.00471826521239403	0.003857046268891539	0.06473079328252972	0.09017203152664277	0.03820011461869182	0.05805400676199884	0.05905823187844935	0.02077417945673384	0.04436244162756844
0.06	0.1585907660658467	0.0004284168361980939	0.02480758840866397	0.03823501802243488	0.0401141877991801	0.02930337084437836	0.09512111880155302	0.005970413884547975	0.005109704036256912	0.07511749630474679	0.1038507495676489	0.04394302606068034	0.06811302416089475	0.06931342349071401	0.02678731320228842	0.05455881898827403
0.07000000000000001	0.177754625460247	0.003903540127002294	0.02808926303671545	0.04351372799663442	0.04876059742350018	0.03304479257178879	0.1058346299457689	0.007210509437407654	0.006395341478319664	0.08547930541620866	0.1168970821147927	0.04929772530716155	0.07781662788535526	0.07913411557616662	0.03285488232698505	0.06466456193569814
0.08	0.1946932515164127	0.00770573133447364	0.03132301105072196	0.04856437681016581	0.05766517173961397	0.03644752126432831	0.1153389425759955	0.008432661658243976	0.007708579292368225	0.09575152716586896	0.1292304436830136	0.05423600590931105	0.08708254580771568	0.08847741436911771	0.03895954609226142	0.07467370991679517
0.09	0.2092893315285989	0.01183334722279078	0.03448098944340426	0.05336836579251068	0.06676941256733673	0.03947720529267044	0.1236278397578482	0.009631395093369709	0.009043473593133594	0.1058670977494765	0.1407759141863299	0.05873354093339847	0.09583417366051833	0.09730284279757521	0.04508221847210003	0.0845817638024461
0.1	0.2214608256007976	0.01628156257214773	0.03753645093275901	0.05790823901656882	0.07600966363405082	0.04210614746716713	0.1307042352283574	0.01080166574638691	0.01039350525177276	0.1157573160086753	0.1514651466783114	0.06277013700982219	0.1040014934570391	0.1055726335185267	0.05120199004623611	0.09438538097592188
0.11	0.2311615064602804	0.02104204688632255	0.04046426186285539	0.06216781461978723	0.08531754755404222	0.04431361247260214	0.136580057721178	0.01193886180635396	0.01175157494677475	0.1253526657431427	0.1612372221363438	0.0663299363237119	0.1115218434655942	0.1132520158369849	0.05729607662843098	0.104082029371388
0.12	0.2383806746471242	0.0261026599869092	0.04324143154643181	0.06613232187218872	0.09462050695978348	0.04608597428083547	0.1412760725406698	0.01303878927888055	0.01311000672258796	0.1345837196276818	0.1700394425615628	0.06940156584994582	0.1183405340677338	0.1203094925243714	0.06333980017730145	0.1136696039033162
0.13	0.2431421072751603	0.03144718063373065	0.04584764697892357	0.06978854283874678	0.1038424557081692	0.04741671700742097	0.1448216272323656	0.01409764390322584	0.01446056264983032	0.1433821133715622	0.1778280520758261	0.07197823234212028	0.1244113124679449	0.1267171023760869	0.06930660740325162	0.123146010814795
0.14	0.2455023236902039	0.0370550827845889	0.04826580664223826	0.07312495684879881	0.1129045430596805	0.04830630817442212	0.1472543058218208	0.01511197144256377	0.01579447078848262	0.1516815746863752	0.1845688728304096	0.07405776043604613	0.1296966854459322	0.1324506648797733	0.07516813108084125	0.1325087290083058
0.15	0.245548265340338	0.04290137401833728	0.05048254719521457	0.07613188516016083	0.1217260301758649	0.04876196570208393	0.1486194757656969	0.01607861922431957	0.01710246819062291	0.1594189869490187	0.1902378396249324	0.07564257030582373	0.1341681129166854	0.1374900032558262	0.08089429882899406	0.1417543608318898
0.16	0.2433944927941594	0.04895650995003087	0.05248875656327499	0.07880163212610482	0.1302252742628315	0.04879733980779548	0.1489697148042966	0.01699468246654906	0.01837486024460326	0.1665354621650419	0.1948214158280646	0.07673959153986347	0.1378060867825011	0.1418191410940466	0.08645349418010079	0.1508781864683644
0.17	0.2391800029899291	0.05518639712087409	0.05428006578100276	0.08112861808300929	0.1383208111043398	0.04843212943941866	0.1483641125486777	0.01785744930847014	0.01960159731500858	0.1729773925341222	0.1983168743125204	0.07736011183989673	0.140600109750702	0.1454264672712511	0.09181277468190756	0.1598737362955385
0.18	0.2330647670564937	0.0615524948768251	0.0558573099933013	0.0831094985040563	0.1459325216106695	0.04769165066725575	0.1468674533459756	0.01866434852340091	0.02077236935277565	0.1786974456955154	0.2007324299026645	0.07751956231835047	0.1425485874642321	0.1483048654044107	0.09693815102528737	0.1687323957274456
0.19	0.2252260854589815	0.06801202426803572	0.05722694672530237	0.08474326376797342	0.1529828626266422	0.04660637194984483	0.1445492996621487	0.01941290365522172	0.02187671886849033	0.1836554665725489	0.2020872129618524	0.07723724438598356	0.143658644915402	0.150451807768455	0.1017949295603039	0.1774430574474625
0.2	0.2158548532091453	0.07451828911391313	0.05840141722147914	0.08603131373650037	0.1593981369253191	0.04521142854489896	0.1414830050644675	0.02010069689239893	0.02290417232173679	0.1878192486352493	0.2024110765386935	0.0765360054445899	0.1439458751680026	0.1518694176082223	0.106348118188676	0.1859918357436241
